{
    "asset" : {
        "generator" : "Khronos glTF Blender I/O v1.6.16",
        "version" : "2.0"
    },
    "scene" : 0,
    "scenes" : [
        {
            "name" : "Scene",
            "nodes" : [
                0,
                1,
                2
            ]
        }
    ],
    "nodes" : [
        {
            "name" : "Light",
            "rotation" : [
                0.16907575726509094,
                0.7558803558349609,
                -0.27217137813568115,
                0.570947527885437
            ],
            "translation" : [
                0,
                3.5399999618530273,
                -2.0899999141693115
            ]
        },
        {
            "name" : "Camera",
            "rotation" : [
                0.7071068286895752,
                0,
                0,
                0.7071068286895752
            ],
            "translation" : [
                0,
                0.15238595008850098,
                17.111722946166992
            ]
        },
        {
            "mesh" : 0,
            "name" : "Super Bombul",
            "rotation" : [
                0.7071067690849304,
                0,
                0,
                0.7071068286895752
            ],
            "scale" : [
                -0.019999999552965164,
                -0.019999999552965164,
                -0.019999999552965164
            ],
            "translation" : [
                0.008209609426558018,
                -0.01790914498269558,
                -0.1000695675611496
            ]
        }
    ],
    "animations" : [
        {
            "channels" : [
                {
                    "sampler" : 0,
                    "target" : {
                        "node" : 2,
                        "path" : "rotation"
                    }
                },
                {
                    "sampler" : 1,
                    "target" : {
                        "node" : 2,
                        "path" : "scale"
                    }
                }
            ],
            "name" : "Super BombulAction.001",
            "samplers" : [
                {
                    "input" : 3,
                    "interpolation" : "LINEAR",
                    "output" : 4
                },
                {
                    "input" : 3,
                    "interpolation" : "LINEAR",
                    "output" : 5
                }
            ]
        }
    ],
    "materials" : [
        {
            "doubleSided" : true,
            "name" : "Material.001",
            "pbrMetallicRoughness" : {
                "baseColorFactor" : [
                    0.8000000715255737,
                    0,
                    0.0032691501546651125,
                    1
                ],
                "metallicFactor" : 0,
                "roughnessFactor" : 0.5
            }
        }
    ],
    "meshes" : [
        {
            "name" : "Super Bombul",
            "primitives" : [
                {
                    "attributes" : {
                        "POSITION" : 0,
                        "NORMAL" : 1
                    },
                    "indices" : 2,
                    "material" : 0
                }
            ]
        }
    ],
    "accessors" : [
        {
            "bufferView" : 0,
            "componentType" : 5126,
            "count" : 32537,
            "max" : [
                56.383480072021484,
                4.996521472930908,
                57.2834587097168
            ],
            "min" : [
                -55.557518005371094,
                -5.003478527069092,
                -55.477542877197266
            ],
            "type" : "VEC3"
        },
        {
            "bufferView" : 1,
            "componentType" : 5126,
            "count" : 32537,
            "type" : "VEC3"
        },
        {
            "bufferView" : 2,
            "componentType" : 5123,
            "count" : 41928,
            "type" : "SCALAR"
        },
        {
            "bufferView" : 3,
            "componentType" : 5126,
            "count" : 141,
            "max" : [
                5.833333333333333
            ],
            "min" : [
                0
            ],
            "type" : "SCALAR"
        },
        {
            "bufferView" : 4,
            "componentType" : 5126,
            "count" : 141,
            "type" : "VEC4"
        },
        {
            "bufferView" : 5,
            "componentType" : 5126,
            "count" : 141,
            "type" : "VEC3"
        }
    ],
    "bufferViews" : [
        {
            "buffer" : 0,
            "byteLength" : 390444,
            "byteOffset" : 0
        },
        {
            "buffer" : 0,
            "byteLength" : 390444,
            "byteOffset" : 390444
        },
        {
            "buffer" : 0,
            "byteLength" : 83856,
            "byteOffset" : 780888
        },
        {
            "buffer" : 0,
            "byteLength" : 564,
            "byteOffset" : 864744
        },
        {
            "buffer" : 0,
            "byteLength" : 2256,
            "byteOffset" : 865308
        },
        {
            "buffer" : 0,
            "byteLength" : 1692,
            "byteOffset" : 867564
        }
    ],
    "buffers" : [
        {
            "byteLength" : 869256,
            "uri" : "data:application/octet-stream;base64,"
        }
    ]
}
